<svg width="535" height="107" viewBox="0 0 535 107" fill="none" xmlns="http://www.w3.org/2000/svg">
<path d="M88.2616 59.7506C79.1756 55.3814 64.5567 52.5994 51.2575 52.5994C43.1076 52.5994 38.1009 38.4977 36.7055 29.26L41.9752 20.3121C43.1567 18.306 44.8414 16.6431 46.8627 15.4877C48.884 14.3323 51.1718 13.7246 53.5 13.7246C55.8282 13.7246 58.116 14.3323 60.1373 15.4877C62.1586 16.6431 63.8433 18.306 65.0248 20.3121L88.2616 59.7506V59.7506ZM95.7204 72.4078L96.3446 73.4599C97.5419 75.4918 98.1806 77.8041 98.196 80.1624C98.2115 82.5208 97.6031 84.8412 96.4325 86.8886C95.2619 88.936 93.5708 90.6374 91.5306 91.8204C89.4904 93.0035 87.1737 93.626 84.8153 93.625H22.1802C19.8222 93.6252 17.5061 93.0021 15.4665 91.8188C13.4269 90.6354 11.7365 88.9339 10.5664 86.8867C9.39638 84.8394 8.78836 82.5193 8.80399 80.1613C8.81962 77.8034 9.45834 75.4915 10.6554 73.4599L30.7937 39.2913C32.6528 51.5963 40.3524 61.5161 51.2575 61.5161C63.5045 61.5161 81.1729 63.9057 95.7204 72.4078V72.4078Z" fill="white"/>
<path d="M127.05 70.4C124.917 70.4 123.85 69.3 123.85 67.1V37.65C123.85 35.45 124.917 34.35 127.05 34.35C129.183 34.35 130.25 35.45 130.25 37.65V49.45H148.4V37.65C148.4 35.45 149.467 34.35 151.6 34.35C153.733 34.35 154.8 35.45 154.8 37.65V67.1C154.8 69.3 153.733 70.4 151.6 70.4C149.467 70.4 148.4 69.3 148.4 67.1V54.8H130.25V67.1C130.25 69.3 129.183 70.4 127.05 70.4ZM165.722 70.4C163.589 70.4 162.522 69.3 162.522 67.1V37.65C162.522 35.45 163.589 34.35 165.722 34.35C167.855 34.35 168.922 35.45 168.922 37.65V67.1C168.922 69.3 167.855 70.4 165.722 70.4ZM179.833 70.4C177.7 70.4 176.633 69.3 176.633 67.1V37.6C176.633 35.4333 177.7 34.35 179.833 34.35C181.967 34.35 183.033 35.4333 183.033 37.6V50.35H183.133L197.483 35.95C198.017 35.4167 198.55 35.0167 199.083 34.75C199.617 34.4833 200.217 34.35 200.883 34.35C201.85 34.35 202.533 34.6 202.933 35.1C203.367 35.6 203.533 36.1833 203.433 36.85C203.367 37.5167 203.05 38.1333 202.483 38.7L189.333 51.7L203.183 65.75C203.883 66.4167 204.25 67.1167 204.283 67.85C204.317 68.5833 204.083 69.2 203.583 69.7C203.117 70.1667 202.417 70.4 201.483 70.4C200.683 70.4 200.033 70.2333 199.533 69.9C199.067 69.5667 198.517 69.0833 197.883 68.45L183.133 53.7H183.033V67.1C183.033 69.3 181.967 70.4 179.833 70.4ZM213.285 70C211.018 70 209.885 68.8667 209.885 66.6V38.15C209.885 35.8833 211.018 34.75 213.285 34.75H231.135C232.868 34.75 233.735 35.5833 233.735 37.25C233.735 38.9833 232.868 39.85 231.135 39.85H216.035V49.55H230.035C231.768 49.55 232.635 50.4 232.635 52.1C232.635 53.8 231.768 54.65 230.035 54.65H216.035V64.9H231.135C232.868 64.9 233.735 65.75 233.735 67.45C233.735 69.15 232.868 70 231.135 70H213.285ZM265.443 70.5C263.21 70.5 261.027 70.25 258.893 69.75C256.793 69.25 254.96 68.5 253.393 67.5C252.627 67 252.16 66.3833 251.993 65.65C251.827 64.9167 251.877 64.2333 252.143 63.6C252.443 62.9333 252.893 62.4833 253.493 62.25C254.127 61.9833 254.843 62.1 255.643 62.6C257.11 63.4667 258.66 64.1 260.293 64.5C261.927 64.9 263.643 65.1 265.443 65.1C268.077 65.1 269.993 64.6667 271.193 63.8C272.393 62.9 272.993 61.75 272.993 60.35C272.993 59.1833 272.56 58.2667 271.693 57.6C270.86 56.9333 269.41 56.3833 267.343 55.95L261.843 54.8C255.577 53.4667 252.443 50.25 252.443 45.15C252.443 42.95 253.027 41.0333 254.193 39.4C255.36 37.7667 256.977 36.5 259.043 35.6C261.11 34.7 263.493 34.25 266.193 34.25C268.193 34.25 270.093 34.5 271.893 35C273.693 35.5 275.31 36.2333 276.743 37.2C277.41 37.6667 277.81 38.25 277.943 38.95C278.077 39.6167 277.993 40.25 277.693 40.85C277.393 41.4167 276.91 41.8167 276.243 42.05C275.61 42.25 274.86 42.1 273.993 41.6C272.76 40.9 271.51 40.4 270.243 40.1C268.977 39.8 267.61 39.65 266.143 39.65C263.843 39.65 262.043 40.1333 260.743 41.1C259.443 42.0667 258.793 43.3333 258.793 44.9C258.793 46.1 259.193 47.0667 259.993 47.8C260.793 48.5 262.16 49.05 264.093 49.45L269.543 50.6C272.843 51.3 275.293 52.4 276.893 53.9C278.527 55.4 279.343 57.4 279.343 59.9C279.343 62 278.777 63.85 277.643 65.45C276.51 67.05 274.893 68.3 272.793 69.2C270.727 70.0667 268.277 70.5 265.443 70.5ZM300.636 70.5C297.236 70.5 294.253 69.75 291.686 68.25C289.153 66.75 287.186 64.65 285.786 61.95C284.386 59.2167 283.686 56.0167 283.686 52.35C283.686 48.65 284.386 45.45 285.786 42.75C287.186 40.05 289.153 37.9667 291.686 36.5C294.22 35 297.203 34.25 300.636 34.25C304.07 34.25 307.053 35 309.586 36.5C312.12 37.9667 314.086 40.05 315.486 42.75C316.886 45.45 317.586 48.6333 317.586 52.3C317.586 56 316.886 59.2167 315.486 61.95C314.086 64.65 312.12 66.75 309.586 68.25C307.053 69.75 304.07 70.5 300.636 70.5ZM300.636 65C303.87 65 306.386 63.8833 308.186 61.65C309.986 59.4167 310.886 56.3167 310.886 52.35C310.886 48.35 309.986 45.25 308.186 43.05C306.42 40.85 303.903 39.75 300.636 39.75C297.403 39.75 294.886 40.85 293.086 43.05C291.286 45.25 290.386 48.35 290.386 52.35C290.386 56.3167 291.286 59.4167 293.086 61.65C294.886 63.8833 297.403 65 300.636 65ZM327.394 70.4C325.194 70.4 324.094 69.2667 324.094 67V38.15C324.094 35.8833 325.227 34.75 327.494 34.75H344.944C346.677 34.75 347.544 35.5833 347.544 37.25C347.544 38.9833 346.677 39.85 344.944 39.85H330.494V49.8H343.894C345.627 49.8 346.494 50.6333 346.494 52.3C346.494 54.0333 345.627 54.9 343.894 54.9H330.494V67C330.494 69.2667 329.461 70.4 327.394 70.4ZM364.261 70.4C362.128 70.4 361.061 69.3 361.061 67.1V40.1H351.311C349.478 40.1 348.561 39.2 348.561 37.4C348.561 35.6333 349.478 34.75 351.311 34.75H377.211C379.044 34.75 379.961 35.6333 379.961 37.4C379.961 39.2 379.044 40.1 377.211 40.1H367.461V67.1C367.461 69.3 366.394 70.4 364.261 70.4ZM396.748 70.4C395.048 70.4 393.881 69.5 393.248 67.7L382.798 38.15C382.431 37.0833 382.498 36.1833 382.998 35.45C383.531 34.7167 384.415 34.35 385.648 34.35C386.548 34.35 387.248 34.5667 387.748 35C388.248 35.4 388.648 36.05 388.948 36.95L396.948 60.75L405.348 37C405.981 35.2333 407.048 34.35 408.548 34.35C409.348 34.35 409.981 34.5667 410.448 35C410.915 35.4333 411.315 36.1167 411.648 37.05L419.898 61.1L428.148 36.95C428.448 36.0833 428.848 35.4333 429.348 35C429.848 34.5667 430.531 34.35 431.398 34.35C432.465 34.35 433.248 34.7167 433.748 35.45C434.248 36.1833 434.315 37.0833 433.948 38.15L423.398 67.75C423.065 68.65 422.631 69.3167 422.098 69.75C421.565 70.1833 420.848 70.4 419.948 70.4C419.048 70.4 418.331 70.1833 417.798 69.75C417.265 69.3167 416.831 68.6333 416.498 67.7L408.348 44.55L400.148 67.75C399.815 68.65 399.381 69.3167 398.848 69.75C398.348 70.1833 397.648 70.4 396.748 70.4ZM437.384 70.4C436.217 70.4 435.384 70 434.884 69.2C434.384 68.4 434.4 67.4333 434.934 66.3L448.134 37.05C448.567 36.0833 449.084 35.4 449.684 35C450.317 34.5667 451.034 34.35 451.834 34.35C452.6 34.35 453.284 34.5667 453.884 35C454.517 35.4 455.05 36.0833 455.484 37.05L468.734 66.3C469.267 67.4667 469.3 68.45 468.834 69.25C468.367 70.0167 467.567 70.4 466.434 70.4C465.5 70.4 464.767 70.1833 464.234 69.75C463.734 69.2833 463.284 68.5833 462.884 67.65L460.384 61.85H443.184L440.734 67.65C440.3 68.6167 439.85 69.3167 439.384 69.75C438.917 70.1833 438.25 70.4 437.384 70.4ZM451.734 41.7L445.384 56.75H458.184L451.834 41.7H451.734ZM477.441 70.4C475.307 70.4 474.241 69.3 474.241 67.1V38C474.241 35.8333 475.324 34.75 477.491 34.75H489.541C493.407 34.75 496.391 35.6833 498.491 37.55C500.591 39.3833 501.641 41.9667 501.641 45.3C501.641 47.9333 500.957 50.1167 499.591 51.85C498.224 53.55 496.257 54.7 493.691 55.3C495.391 55.8333 496.791 57.1167 497.891 59.15L501.641 66.1C502.207 67.1667 502.307 68.15 501.941 69.05C501.607 69.95 500.757 70.4 499.391 70.4C498.491 70.4 497.757 70.2167 497.191 69.85C496.624 69.45 496.124 68.85 495.691 68.05L490.641 58.75C490.041 57.6167 489.324 56.8667 488.491 56.5C487.691 56.1 486.657 55.9 485.391 55.9H480.641V67.1C480.641 69.3 479.574 70.4 477.441 70.4ZM480.641 51.15H488.441C493.107 51.15 495.441 49.25 495.441 45.45C495.441 41.6833 493.107 39.8 488.441 39.8H480.641V51.15ZM511.918 70C509.651 70 508.518 68.8667 508.518 66.6V38.15C508.518 35.8833 509.651 34.75 511.918 34.75H529.768C531.501 34.75 532.368 35.5833 532.368 37.25C532.368 38.9833 531.501 39.85 529.768 39.85H514.668V49.55H528.668C530.401 49.55 531.268 50.4 531.268 52.1C531.268 53.8 530.401 54.65 528.668 54.65H514.668V64.9H529.768C531.501 64.9 532.368 65.75 532.368 67.45C532.368 69.15 531.501 70 529.768 70H511.918Z" fill="white"/>
</svg>
